<svg xmlns="http://www.w3.org/2000/svg" xmlns:xlink="http://www.w3.org/1999/xlink" fill="currentColor" version="1.1" id="Layer_1" viewBox="0 0 512 512" xml:space="preserve">
          <g>
            <g>
              <path d="M293.463,324.683h-74.927c-30.986,0-56.195,25.209-56.195,56.195v74.927c0,30.986,25.209,56.195,56.195,56.195h74.927    c30.987,0,56.195-25.209,56.195-56.195v-74.927C349.659,349.892,324.451,324.683,293.463,324.683z M237.268,443.317h-37.463    v-49.951h37.463V443.317z M312.195,443.317h-37.463v-49.951h37.463V443.317z"/>
            </g>
          </g>
          <g>
            <g>
              <path d="M156.098,149.854H112.39v131.122c0,20.203,13.782,37.241,32.436,42.226c13.479-17.188,32.808-29.579,54.979-34.097    v-95.544C199.805,169.461,180.198,149.854,156.098,149.854z M149.854,224.781h-0.003c-13.77,0-24.973-11.204-24.973-24.976    c0.005-13.774,11.209-24.976,24.976-24.976c13.772,0,24.976,11.204,24.976,24.976S163.625,224.781,149.854,224.781z"/>
            </g>
          </g>
          <g>
            <g>
              <path d="M468.293,49.951c-24.1,0-43.707,19.607-43.707,43.707v18.732h18.732c24.1,0,43.707-19.607,43.707-43.707V49.951H468.293z"/>
            </g>
          </g>
          <g>
            <g>
              <path d="M355.902,149.854c-24.1,0-43.707,19.607-43.707,43.707v95.543c22.172,4.519,41.501,16.91,54.98,34.099    c18.653-4.985,32.435-22.023,32.435-42.226V149.854H355.902z M362.146,224.781h-0.003c-13.77,0-24.973-11.204-24.973-24.976    c0.005-13.774,11.209-24.976,24.976-24.976c13.772,0,24.976,11.204,24.976,24.976S375.918,224.781,362.146,224.781z"/>
            </g>
          </g>
          <g>
            <g>
              <path d="M43.707,49.951H24.976v18.732c0,24.1,19.607,43.707,43.707,43.707h18.732V93.659    C87.415,69.558,67.808,49.951,43.707,49.951z"/>
            </g>
          </g>
          <g>
            <g>
              <path d="M368.39,0c-10.33,0-18.732,8.403-18.732,18.732v37.463c0,30.986-25.208,56.195-56.195,56.195h-74.927    c-30.986,0-56.195-25.209-56.195-56.195V18.732C162.341,8.403,153.938,0,143.61,0c-10.329,0-18.732,8.403-18.732,18.732v74.927    v18.732h31.219c44.758,0,81.171,36.413,81.171,81.171v93.659h37.463v-93.659c0-44.758,36.413-81.171,81.171-81.171h31.219V93.659    V18.732C387.122,8.403,378.72,0,368.39,0z"/>
            </g>
          </g>
          </svg>